HIERARCHY
ROOT Hip
{
	OFFSET 0 0 0
	CHANNELS 6 Xposition Yposition Zposition Zrotation Yrotation Xrotation
	JOINT ShoulderCenter
	{
		OFFSET 0 43.63 0
		CHANNELS 3 Zrotation Yrotation Xrotation
		JOINT Head
		{
			OFFSET 0 18.49 0
			CHANNELS 3 Zrotation Yrotation Xrotation
			End Site
			{
				OFFSET 0.0 8.91 0.0
			}
		}
		JOINT ShoulderLeft
		{
			OFFSET -14 0 0
			CHANNELS 3 Zrotation Yrotation Xrotation
			JOINT ElbowLeft
			{
				OFFSET -25 0 0
				CHANNELS 3 Zrotation Yrotation Xrotation
				JOINT WristLeft
				{
					OFFSET -23 0 0
					CHANNELS 3 Zrotation Yrotation Xrotation
					End Site
					{
						OFFSET -8.32 0.0 0.0
					}
				}
			}
		}
		JOINT ShoulderRight
		{
			OFFSET 14 0 0
			CHANNELS 3 Zrotation Yrotation Xrotation
			JOINT ElbowRight
			{
				OFFSET 25 0 0
				CHANNELS 3 Zrotation Yrotation Xrotation
				JOINT WristRight
				{
					OFFSET 23 0 0
					CHANNELS 3 Zrotation Yrotation Xrotation
					End Site
					{
						OFFSET 8.32 0.0 0.0
					}
				}
			}
		}
	}
	JOINT HipLeft
	{
		OFFSET -9.52 0 0
		CHANNELS 3 Zrotation Yrotation Xrotation
		JOINT KneeLeft
		{
			OFFSET 0 -37.32 0
			CHANNELS 3 Zrotation Yrotation Xrotation
			JOINT AnkleLeft
			{
				OFFSET 0 -34.6 0
				CHANNELS 3 Zrotation Yrotation Xrotation
				End Site
				{
					OFFSET 0.0 0.0 8.91
				}
			}
		}
	}
	JOINT HipRight
	{
		OFFSET 9.52 0 0
		CHANNELS 3 Zrotation Yrotation Xrotation
		JOINT KneeRight
		{
			OFFSET 0 -37.32 0
			CHANNELS 3 Zrotation Yrotation Xrotation
			JOINT AnkleRight
			{
				OFFSET 0 -34.6 0
				CHANNELS 3 Zrotation Yrotation Xrotation
				End Site
				{
					OFFSET 0.0 0.0 8.91
				}
			}
		}
	}
}
MOTION
Frames: 20
Frame Time: 0.033333
4.30907 -24.7258 -182.218 -8.03149 46.0148 -11.4147 -1.68892 0.0804435 -1.12295 4.26887e-07 -2.66804e-08 7.47052e-07 -10.452 11.7352 -54.583 -1.21378e-05 48.8676 -1.02034e-05 0 0 -1.70755e-06 8.90395 2.92912 -59.9563 3.95597e-05 -66.6146 -4.31046e-05 0 0 0 1.60769 -0.859373 10.0999 7.70854 0.543832 -3.28021 -1.06722e-07 0 0 12.3568 2.22779 -1.36555 -7.76164 -1.68443 30.2639 0 0 0 
4.30907 -24.6308 -181.506 -7.80451 45.7349 -11.1565 -1.78038 -0.0332401 -1.06902 0 0 0 -10.6088 9.83759 -52.6756 -7.62238e-06 48.8337 -4.398e-06 0 0 0 8.24442 3.49358 -60.4045 2.11989e-05 -65.4451 -2.35158e-05 0 0 0 2.32498 -0.990577 10.8279 7.38544 0.610803 -3.50752 0 0 0 15.24 4.88125 -3.6368 -12.4986 -0.376157 31.3173 0 0 0 
4.30907 -24.721 -180.947 -6.88794 43.5472 -10.2796 -1.90355 -0.251228 -0.748077 0 0 0 -11.4781 10.6522 -53.7657 1.12538e-06 46.85 1.11879e-05 0 0 0 8.54834 4.85354 -58.7768 2.52889e-05 -65.623 -2.18919e-05 0 0 0 2.07639 -0.939932 10.3914 7.10896 0.504561 -2.95336 1.06722e-07 0 0 13.8072 3.94906 -4.85466 -10.1791 -1.31612 29.4958 0 0 0 
4.63926 -24.6732 -180.42 -5.6656 39.6111 -9.07829 -2.03122 -0.0895244 -0.816806 0 0 0 -11.9354 12.7622 -52.0248 -8.42487e-06 48.597 -1.0361e-05 6.36111e-15 -4.26887e-07 -1.70755e-06 7.69585 9.61082 -58.7198 -1.03908e-05 -67.087 1.76705e-06 0 0 0 2.24961 -0.639835 10.287 4.69485 0.301315 -2.4251 0 0 0 13.746 2.24135 -2.41979 -9.47761 -1.1676 17.5798 0 0 0 
4.84967 -24.6845 -179.985 -5.24288 36.7166 -8.47944 -1.86233 -0.44527 -0.467833 0 0 0 -12.7085 12.1626 -52.6065 3.24002e-07 47.2602 -7.7795e-06 0 0 0 7.27963 9.45726 -60.4753 3.66627e-06 -65.7043 -1.35469e-05 0 0 0 2.73932 -0.549225 10.6518 3.27575 0.301481 -3.09436 0 0 0 13.5168 0.953464 -0.337662 -8.75403 -0.501026 6.96846 0 0 0 
5.20096 -24.7127 -179.96 -2.80123 32.4856 -6.22643 -2.38528 0.0552157 -0.0478577 0 0 0 -14.8779 12.6348 -53.3448 -6.68848e-06 47.1203 -1.10665e-05 0 0 0 6.20392 10.0332 -61.5143 7.67222e-06 -66.219 -5.5129e-06 0 0 0 0.0762646 -0.279764 9.06039 4.32465 0.238861 -2.79852 0 0 0 10.1798 0.0304221 0.775498 -4.43928 0.0309394 -0.285767 0 0 0 
5.75379 -24.9849 -179.899 -2.1512 28.8091 -5.8277 -1.16023 0.0187395 0.855334 0 0 0 -17.3193 11.6661 -55.1148 5.66522e-06 49.1801 6.91876e-08 0 0 0 4.57158 8.28321 -66.5585 -6.99332e-06 -64.2748 7.92219e-06 0 0 0 -0.97184 -0.0403306 9.23381 4.54188 0.167369 -2.74217 -1.06722e-07 2.48481e-17 2.66804e-08 8.83673 -0.354888 3.02018 -2.50995 0.479917 -4.36335 0 0 0 
6.28381 -25.4033 -179.807 -1.15013 25.1977 -5.3038 -0.931522 0.248481 -0.0543434 0 0 0 -19.1369 11.3743 -60.048 5.02351e-06 46.7242 -1.28859e-06 0 0 0 5.66195 4.58368 -66.2149 -1.30522e-05 -63.9047 1.77e-05 0 0 0 -2.10851 0.0825884 9.8688 4.14769 0.194719 -4.77137 0 0 0 6.78248 -0.60645 4.95905 -0.268083 0.827676 -6.82769 0 0 0 
6.78309 -25.6195 -180.104 -0.592416 16.9656 -3.82834 -1.67931 -0.142261 -0.595287 0 0 0 -18.9276 15.8525 -63.1645 5.19018e-06 46.7377 7.70678e-06 0 0 1.70755e-06 4.00178 11.6932 -62.6501 1.92552e-06 -65.1596 3.32898e-06 0 0 0 -3.04015 0.19271 9.73034 3.32095 0.062521 -9.88664 0 0 0 5.21412 -0.839243 6.85932 1.93609 1.31414 -9.99536 0 0 0 
7.30043 -25.6426 -180.149 -0.647038 12.7462 -3.3443 -0.647047 -0.790371 0.83483 0 0 0 -21.7226 13.9822 -66.6277 -5.43495e-06 43.4191 -1.36508e-05 0 0 0 2.61383 9.17101 -65.9296 3.07184e-06 -67.158 1.54745e-06 0 0 0 -3.78598 0.220174 8.76564 4.37234 0.00442367 -10.4826 0 0 0 4.44207 -1.08199 9.14164 2.94003 1.8313 -14.305 -8.00413e-07 0 0 
8.02504 -25.716 -180.48 -0.070652 5.55059 -2.02989 -0.264827 0.820068 1.5497 0 0 0 -22.1237 11.3005 -65.7103 6.82832e-06 45.3683 7.48091e-06 0 0 0 0.787027 8.71335 -66.4656 -1.33049e-05 -65.5224 8.05408e-06 0 0 0 -6.18133 -0.0708823 5.93471 7.11552 0.16497 -8.19884 0 0 0 1.46593 -1.33987 9.24734 6.66437 2.27931 -14.6467 0 0 0 
8.17659 -25.7035 -180.483 -0.118955 0.559992 -1.30036 0.476777 -0.0505087 1.82786 2.47996e-17 -5.32566e-08 -5.33608e-08 -22.0754 9.15048 -65.0151 5.50101e-06 47.1364 1.93396e-06 0 0 0 2.24803 7.99323 -64.5589 5.31653e-06 -63.3861 -7.79799e-06 0 0 0 -6.60436 -0.0402145 3.59395 6.47365 -0.0277549 -4.96606 0 -6.25322e-09 0 0.599918 -1.46486 9.90549 8.1422 2.43033 -15.2249 0 0 0 
8.365 -25.573 -180.512 0.151718 -2.25557 -0.968076 0.517455 -0.0602581 1.5706 0 0 0 -21.2263 3.45733 -62.4967 1.34923e-05 49.642 1.18843e-05 0 0 0 3.94887 2.07102 -63.4743 -5.29638e-06 -58.3601 4.6689e-06 0 0 0 -8.18211 -0.371265 2.44449 8.76478 0.0355412 -2.60998 0 0 0 -1.57505 -1.89024 10.4386 11.3299 2.85064 -15.3452 0 0 0 
8.365 -25.485 -180.463 0.0945693 -7.39611 0.147072 1.76582 -1.38273 -0.668493 0 0 0 -22.9671 3.5634 -61.5145 -9.51743e-06 46.43 -1.24431e-05 0 0 0 4.50434 2.35219 -60.0168 1.64223e-05 -56.5704 -2.24105e-05 0 0 0 -9.11179 -1.03726 -0.91602 9.00063 0.00446822 6.45708 0 0 0 -2.46828 -1.93413 9.7483 12.608 2.69311 -14.3743 0 0 0 
8.365 -25.4142 -180.144 0.64235 -12.017 -0.843785 1.32618 1.16947 0.0756243 0 0 0 -23.0271 -2.45191 -55.6651 4.06229e-06 47.4938 6.45092e-06 0 0 0 6.31357 -5.01122 -61.2159 5.55844e-06 -54.2541 -7.1046e-06 0 0 0 -10.3124 -1.6599 -1.57333 10.6125 0.00466134 9.44544 0 0 0 -4.02984 -1.76953 11.5107 13.9942 2.4202 -13.8697 0 0 0 
7.54079 -25.4059 -180.107 0.521618 -17.4474 -0.985059 1.72772 -0.37034 0.487697 -2.13443e-07 1.70755e-06 5.33608e-08 -24.34 -1.40608 -53.8085 -7.04583e-06 47.5673 -9.63624e-06 0 0 0 5.94106 -3.35739 -59.3692 1.00504e-06 -57.097 -6.08186e-08 0 0 0 -10.732 -2.30656 -2.72107 11.3166 0.185684 12.2003 0 0 0 -2.63997 -0.802759 10.4865 11.7297 1.19435 -9.01233 0 0 0 
7.21888 -25.4502 -179.837 2.27315 -20.8025 -1.87565 1.34624 -0.141252 -0.835595 0 0 0 -25.7461 -2.67839 -53.7715 6.97159e-06 47.7939 3.08894e-06 0 0 0 3.30998 -8.24194 -60.9866 4.47533e-06 -58.6959 -4.47533e-06 0 0 0 -12.3333 -2.26404 -1.67937 12.5099 -0.177588 11.0772 1.06722e-07 4.96962e-17 -5.33609e-08 -5.49279 -0.0917686 12.1639 9.83666 0.725191 -8.48685 0 0 0 
6.22991 -25.5592 -179.604 2.78138 -24.6603 -2.46864 1.62233 -0.48288 -0.31231 0 0 0 -26.001 -5.27762 -52.5067 1.02054e-05 50.075 5.70933e-06 0 0 0 1.4647 -9.47903 -61.9208 -6.09063e-06 -61.1316 3.59709e-06 0 0 0 -13.89 -2.68828 -0.550131 15.2175 -0.206508 9.57558 0 0 0 -3.87881 0.663697 10.2015 3.61437 -0.00125086 -0.0941715 1.06722e-07 8.44835e-16 -9.07135e-07 
5.37297 -25.4579 -178.945 5.48751 -31.6813 -4.93673 1.93584 1.89274 -0.322265 0 0 0 -28.1316 -5.6412 -53.4418 9.53242e-06 53.0515 3.80382e-06 0 0 0 -2.09021 -10.9602 -62.4287 6.0389e-06 -64.1472 -1.28524e-05 0 0 0 -15.2821 -2.08232 0.203263 13.402 0.38863 11.0496 0 0 0 -5.57409 0.896811 9.28977 2.07982 0.418541 5.82802 0 0 0 
3.43465 -25.621 -178.554 5.49984 -34.6434 -6.41581 1.74526 1.11078 0.533144 0 0 0 -27.6909 -7.22912 -52.5438 -5.24142e-06 55.2562 -1.09345e-05 0 0 0 -3.50797 -12.6798 -62.3204 1.23545e-06 -65.5415 1.23545e-06 0 0 0 -15.8351 -1.27443 6.9271 18.3951 -0.0809195 1.58086 0 0 0 -5.90847 0.810534 10.6508 3.78903 0.28779 7.96336 0 0 0 
